<svg viewBox="0 0 96 96" xmlns="http://www.w3.org/2000/svg" xmlns:xlink="http://www.w3.org/1999/xlink" id="Icons_DoorOpen_M" overflow="hidden"><g id="Icons"><path d="M72 86 72 9 24 9 24 86 10 86 10 88 26 88 26 11 70 11 70 88 86 88 86 86Z"/><path d="M30 88.1 61 83.8 61 19.1 30 14.8 30 88.1ZM32 17.1 59 20.8 59 82.1 32 85.8 32 17.1Z"/><path d="M55.7 49C54.6 49.1 53.7 49.9 53.5 51L49 51 49 53 53.5 53C53.7 54.1 54.6 54.9 55.7 55 57 55 58 53.7 58 52 58 50.3 57 49 55.7 49ZM55.7 51C55.8 51 56 51.5 56 52 56 52.4 55.8 53 55.7 53 55.5 53 55.3 52.4 55.4 52 55.3 51.5 55.6 51 55.7 51Z"/></g></svg>