<svg viewBox="0 0 96 96" xmlns="http://www.w3.org/2000/svg" xmlns:xlink="http://www.w3.org/1999/xlink" id="Icons_Clipboard1_LTR_M" overflow="hidden"><path d="M45 20C46.933 20 48.5 18.433 48.5 16.5 48.5 14.567 46.933 13 45 13L44.9 13C42.9974 13.034 41.4788 14.5972 41.5 16.5 41.5033 18.4316 43.0684 19.9967 45 20ZM44.934 15 45 15C45.8284 15 46.5 15.6716 46.4999 16.5001 46.4999 17.3285 45.8283 18 44.9999 18 44.1714 18 43.4999 17.3284 43.4999 16.4999 43.4999 16.4953 43.5 16.4906 43.5 16.486 43.4872 15.6803 44.1283 15.0159 44.934 15Z"/><path d="M45 52.482 45 52 23 52 23 54 43.485 54 45 52.482Z"/><path d="M23 66 39.177 66 39.841 64 23 64 23 66Z"/><path d="M57.457 40 23 40 23 42 55.461 42 57.457 40Z"/><path d="M83.241 21.689C82.3585 20.7838 80.9093 20.7655 80.0041 21.648 80.0027 21.6493 80.0014 21.6507 80 21.652L79.963 21.689 45.624 56.1 42 67.02 52.97 63.4 87.262 28.982C88.1647 28.1893 88.2542 26.8151 87.462 25.912ZM45.435 63.021 47.2 57.7C48.4518 56.6222 50.3404 56.7632 51.4182 58.0151 52.3362 59.0814 52.387 60.6434 51.54 61.767L46.004 63.594ZM52.685 56.433C51.8425 55.5969 50.728 55.0909 49.544 55.007L76.044 28.452 80.513 32.922 54.1 59.435C53.9868 58.3016 53.4872 57.2416 52.685 56.433ZM85.94 27.481 85.891 27.524 85.845 27.571 81.925 31.505 77.456 27.037 81.4 23.082C81.4532 23.0293 81.5251 22.9998 81.6 23 81.6848 23.0005 81.7655 23.0368 81.822 23.1L85.969 27.253C86.0171 27.3257 86.0048 27.4227 85.94 27.481Z"/><path d="M75 45.541 73 47.548 73 84C73 85.1046 72.1046 86 71 86L19 86C17.8954 86 17 85.1046 17 84L17 18.979C17 17.8744 17.8954 16.979 19 16.979L30 16.979 30 27 60 27 60 16.979 71 16.979C72.1046 16.979 73 17.8744 73 18.979L73 24.428 75 22.428 75 18.979C75 16.7699 73.2091 14.979 71 14.979L56 14.979 56 12.979C55.9961 10.2192 53.7598 7.98286 51 7.979L39 7.979C36.2399 7.98231 34.0033 10.2189 34 12.979L34 14.979 19 14.979C16.792 14.9818 15.0028 16.771 15 18.979L15 84C15 86.2091 16.7909 88 19 88L71 88C73.2091 88 75 86.2091 75 84ZM32 16.979 36 16.979 36 12.979C36 11.3221 37.3431 9.979 39 9.979L51 9.979C52.6569 9.979 54 11.3221 54 12.979L54 16.979 58 16.979 58 25 32 25Z"/></svg>