<svg viewBox="0 0 96 96" xmlns="http://www.w3.org/2000/svg" xmlns:xlink="http://www.w3.org/1999/xlink" id="Icons_PostitNotes_M" overflow="hidden"><path d="M77.1707 32.9568C77.3836 33.6097 77.5441 34.2784 77.6507 34.9568L85 34.9568 85 59.2C84.9955 63.0641 81.8641 66.1955 78 66.2L68.17 66.2 68.07 77.2625C68.0246 81.0989 64.9079 84.1883 61.0713 84.2L34 84.2 34 34.9568 52.9272 34.9568C52.2295 34.3235 51.5606 33.6568 50.9204 32.9568L32 32.9568 32 76.8815 10.24 70.5315 24.78 20.7115 49.11 27.8125C49.446 27.1968 49.839 26.6139 50.2837 26.0714L23.4209 18.23 7.76 71.89 32 78.965 32 86.2 62.5342 86.2C66.9346 86.1925 71.1393 84.38 74.166 81.1858L82.6318 72.222C85.4427 69.2557 87.0066 65.3227 87 61.2361L87 32.9568ZM81.1787 70.8489 72.7129 79.8128C71.3305 81.2675 69.6516 82.4082 67.79 83.1576 69.2377 81.5398 70.048 79.4509 70.07 77.28L70.152 68.2 78 68.2C80.3485 68.2004 82.6034 67.2793 84.28 65.6348 83.6412 67.5792 82.5824 69.3594 81.1787 70.8489Z"/><path d="M60.3862 37.73 57.2962 44.33C57.0436 44.8212 57.2371 45.4241 57.7282 45.6766 58.2194 45.9292 58.8223 45.7358 59.0748 45.2446 59.0861 45.2227 59.0966 45.2003 59.1062 45.1776L62.1971 38.5771C65.6817 40.0627 69.4305 40.8293 73.2186 40.831 73.7426 40.831 74.2676 40.8163 74.7936 40.7869L74.9319 40.7792C76.3528 37.4741 75.973 33.6705 73.9267 30.7116L76.9821 20.3616 79.5311 19.9724C80.4059 19.8387 81.1167 19.1963 81.3379 18.3395L81.9294 16.048C82.1653 15.1325 81.7947 14.1681 81.0064 13.6462 76.8143 10.8844 72.2442 8.74445 67.4385 7.2929 66.5329 7.02226 65.5552 7.35505 65.0028 8.122L63.6213 10.0438C63.1049 10.7624 63.0667 11.7197 63.5243 12.4771L64.8575 14.684 58.9164 23.683C55.3334 24.006 52.1687 26.15 50.54 29.3577 53.1279 32.8747 56.4989 35.7411 60.3862 37.73ZM65.2452 11.2112 66.6267 9.2895C66.6673 9.23303 66.7327 9.19968 66.8022 9.2 66.8244 9.20009 66.8465 9.20345 66.8677 9.21 71.4834 10.6047 75.8729 12.66 79.9 15.3119 79.9788 15.3622 80.0163 15.4575 79.9931 15.548L79.4017 17.8394C79.3807 17.9211 79.3129 17.9824 79.2295 17.9952L77.1295 18.3152C73.2759 17.956 68.3352 15.4558 66.4373 13.4307L65.236 11.4423C65.1925 11.3703 65.1961 11.2794 65.2452 11.2111ZM66.3705 16.0226C68.9588 17.9026 71.8941 19.251 75.0066 19.99L72.0087 30.1452 71.9628 30.3006C67.7573 29.4716 63.8083 27.6571 60.44 25.006L60.5859 24.785ZM58.27 25.827C62.3522 29.3219 67.3216 31.6196 72.6284 32.4661 73.7462 34.3886 74.0697 36.6715 73.53 38.8289 73.426 38.8301 73.3223 38.8308 73.2188 38.8309 65.3546 38.8153 57.9114 35.2758 52.9358 29.1858 54.2175 27.4238 56.1271 26.2214 58.27 25.827Z"/></svg>